<svg width="1610" height="458" viewBox="0 0 1610 458" fill="none" xmlns="http://www.w3.org/2000/svg">
<path d="M511.485 52.3668C324.277 3.44151 96.3249 302.57 13.5 457.5L1509 456V418.5C1416.84 298.225 1299.79 165.676 1252.78 131.361C1138.3 29.0253 1007.75 143.082 956.777 212.903C899.333 293.629 832.281 259.789 805.935 232.779C679.064 111.281 556.772 61.88 511.485 52.3668Z" fill="#FFF2F6"/>
<path d="M533.038 6.91782C326.602 -47.0315 92.3312 281.16 1 452H1587L1608.5 390.5C1506.88 257.875 1402.3 131.863 1350.46 94.0235C1224.23 -18.8206 1080.27 106.949 1024.06 183.939C960.719 272.955 886.78 235.641 857.729 205.856C717.827 71.8817 582.976 17.4079 533.038 6.91782Z" stroke="#FEDDE8"/>
</svg>
