<svg width="815" height="774" viewBox="0 0 815 774" fill="none" xmlns="http://www.w3.org/2000/svg">
<path d="M467.19 138.934C232.789 121.179 70.7296 -38.42 19 -116L901 -115.4V659C867.925 652.762 802.534 603.214 773.973 579.221C727.836 540.831 682.193 414 695.48 336.883C712 241 676.705 195.52 655.334 177.324C621.78 137.015 526.5 140.5 467.19 138.934Z" fill="#FCF2F6" fill-opacity="0.61"/>
<path d="M543.48 175.728C317.416 111.273 190.7 -77.6138 155.6 -164L1019.52 13.6704L864.04 772.302C832.891 759.55 778.78 697.883 755.617 668.643C718.127 621.772 697.98 502 727.378 415.481C760.5 318 737.368 273.226 720.085 251.111C695.307 204.885 608.5 194.267 543.48 175.728Z" stroke="#FEDDE8" stroke-width="2" stroke-linecap="round" stroke-linejoin="round"/>
</svg>
