<svg width="407" height="419" viewBox="0 0 407 419" fill="none" xmlns="http://www.w3.org/2000/svg">
<path fill-rule="evenodd" clip-rule="evenodd" d="M139.377 259.257C132.617 246.595 119.777 239.004 112.882 226.414C104.378 210.883 90.2898 194.789 94.6958 177.663C99.0894 160.585 120.747 155.527 134.084 144C147.477 132.426 157.673 118.159 173.261 109.765C194.903 98.111 220.828 72.8394 241.551 86.1319C263.597 100.273 247.519 136.744 254.608 161.944C259.055 177.749 271.401 189.638 275.167 205.617C279.815 225.338 286.469 246.26 278.905 265.033C270.886 284.934 252.06 297.971 233.569 308.85C213.431 320.698 188.962 341.037 168.256 330.135C145.209 318 151.642 282.231 139.377 259.257Z" fill="#FFECF2"/>
<path fill-rule="evenodd" clip-rule="evenodd" d="M131.603 271.449C123.78 256.797 108.923 248.014 100.945 233.446C91.1048 215.476 74.8038 196.853 79.902 177.036C84.9858 157.275 110.046 151.423 125.479 138.086C140.975 124.693 152.773 108.184 170.81 98.4715C195.852 84.987 225.849 55.7454 249.828 71.1261C275.337 87.4887 256.733 129.69 264.936 158.848C270.082 177.136 284.367 190.893 288.725 209.383C294.103 232.201 301.803 256.41 293.05 278.133C283.771 301.159 261.988 316.244 240.591 328.833C217.291 342.542 188.978 366.077 165.018 353.461C138.351 339.421 145.795 298.032 131.603 271.449Z" stroke="#FFD0E0" stroke-width="2"/>
</svg>
