<svg width="374" height="389" viewBox="0 0 374 389" fill="none" xmlns="http://www.w3.org/2000/svg">
<path fill-rule="evenodd" clip-rule="evenodd" d="M122.388 248.8C115.193 236.862 102.359 230.149 95.0376 218.288C86.0069 203.657 71.5332 188.76 74.9418 171.93C78.3407 155.147 99.0877 149.149 111.44 137.299C123.843 125.399 133.011 111.049 147.704 102.122C168.102 89.7292 191.968 63.9143 212.734 75.7589C234.826 88.3596 221.075 124.539 229.222 148.618C234.331 163.72 246.904 174.626 251.362 189.932C256.864 208.822 264.373 228.775 257.984 247.361C251.212 267.064 233.614 280.656 216.231 292.14C197.301 304.645 174.599 325.603 153.969 316.076C131.007 305.471 135.441 270.46 122.388 248.8Z" fill="#FFECF2"/>
<path fill-rule="evenodd" clip-rule="evenodd" d="M120.673 258.744C112.813 245.295 98.4691 237.927 90.4644 224.569C80.5903 208.091 64.5766 191.431 68.7958 172.173C73.0032 152.97 96.5602 145.677 110.768 131.898C125.035 118.061 135.701 101.503 152.487 91.0054C175.792 76.4308 203.306 46.4818 226.493 59.5245C251.159 73.4 234.836 114.939 243.504 142.204C248.94 159.305 262.895 171.459 267.592 188.806C273.388 210.215 281.426 232.792 273.804 254.117C265.723 276.723 245.555 292.603 225.675 306.075C204.026 320.745 177.932 345.133 154.849 334.728C129.156 323.147 134.934 283.144 120.673 258.744Z" stroke="#FFD0E0" stroke-width="2"/>
</svg>
