<svg width="433" height="442" viewBox="0 0 433 442" fill="none" xmlns="http://www.w3.org/2000/svg">
<path fill-rule="evenodd" clip-rule="evenodd" d="M148.513 263.724C143.228 250.378 131.328 241.384 125.901 228.095C119.207 211.703 107.03 194.118 113.344 177.6C119.64 161.129 141.731 158.552 156.286 148.608C170.902 138.622 182.645 125.599 199.083 119.021C221.904 109.889 250.52 87.7112 269.607 103.262C289.912 119.805 269.813 154.224 274.008 180.064C276.639 196.27 287.562 209.479 289.497 225.782C291.885 245.902 296.131 267.442 286.492 285.239C276.275 304.105 256.096 314.93 236.493 323.649C215.145 333.144 188.533 350.586 169.192 337.412C147.665 322.749 158.102 287.937 148.513 263.724Z" fill="#FFECF2"/>
<path fill-rule="evenodd" clip-rule="evenodd" d="M137.798 274.579C131.683 259.137 117.914 248.73 111.635 233.354C103.889 214.386 89.7985 194.039 97.1046 174.926C104.39 155.867 129.951 152.885 146.793 141.379C163.705 129.824 177.293 114.755 196.313 107.144C222.719 96.5777 255.83 70.9154 277.916 88.9087C301.411 108.051 278.155 147.878 283.009 177.776C286.053 196.529 298.692 211.813 300.931 230.677C303.694 253.957 308.608 278.882 297.454 299.475C285.632 321.305 262.283 333.83 239.6 343.919C214.899 354.905 184.106 375.087 161.726 359.844C136.817 342.878 148.894 302.596 137.798 274.579Z" stroke="#FFD0E0" stroke-width="2"/>
</svg>
